<?xml version="1.0" encoding="iso-8859-1"?>
<!-- Generator: Adobe Illustrator 16.0.0, SVG Export Plug-In . SVG Version: 6.00 Build 0)  -->
<!DOCTYPE svg PUBLIC "-//W3C//DTD SVG 1.1//EN" "http://www.w3.org/Graphics/SVG/1.1/DTD/svg11.dtd">
<svg version="1.1" id="Capa_1" xmlns="http://www.w3.org/2000/svg" xmlns:xlink="http://www.w3.org/1999/xlink" x="0px" y="0px"
	 width="615.271px" height="615.271px" viewBox="0 0 615.271 615.271" style="enable-background:new 0 0 615.271 615.271;"
	 xml:space="preserve">
<g>
	<path d="M613.636,277.555c0-30.28-24.633-54.627-54.917-54.627H436.711c-10.383,0-21.027,0.307-31.321,0.883
		c-11.714,0.658-23.754,1.186-35.145,0.944c-4.029-0.085-5.22-1.545-5.61-2.001c-1.005-1.169-3.175-5.114-1.707-16.154
		c2.146-16.054,12.028-31.458,21.592-46.338c5.462-8.499,11.104-17.3,15.4-26.303c17.462-36.472,34.116-82.531,7.672-115.203
		C397.956,6.837,383.29,0,367.349,0c-11.438,0-22.951,3.578-32.43,10.084c-13.505,9.29-20.261,23.338-26.799,36.928
		c-1.9,3.949-3.691,7.676-5.627,11.25c-4.578,8.39-8.104,17.115-11.512,25.553c-4.707,11.657-9.156,22.665-16.054,32.482
		c-4.284,6.095-8.482,12.291-12.689,18.494c-15.049,22.197-30.619,45.152-50.247,63.348l-3.63,3.388
		c-17.526,16.408-53.994,50.549-79.01,50.549c-3.529,0-6.587-0.682-9.362-2.098c-2.109-1.073-4.014-2.234-5.857-3.356
		c-5.461-3.332-11.108-6.776-20.656-7.269c-16.735-0.903-36.758,5.333-53.8,16.812c-23.471,15.84-38.041,41.752-38.041,69.31
		v176.844c0,25.969,15.751,54.312,39.283,72.222c12.686,9.628,26.625,14.953,39.799,15.393c11.568,0.367,20.442-3.881,28.058-7.632
		c3.876-1.908,7.604-3.711,11.645-5.002c6.579-2.093,13.093-3.109,19.845-3.109c19.236,0,37.379,8.434,56.571,17.36
		c17.619,8.196,35.847,16.671,56.354,19.256c24.081,3.046,50.142,4.466,82.015,4.466c19.091,0,38.465-0.5,57.192-0.984
		c18.611-0.479,37.859-0.977,56.708-0.977c30.252,0,54.865-23.733,54.865-54.021c0-15.126-6.14-29.809-16.054-37.875h11.604
		c30.284,0,54.917-25.545,54.917-55.829c0-15.179-6.191-29.396-16.183-39.348c28.675-1.791,51.461-25.92,51.461-55.038
		c0-15.965-6.846-30.325-17.752-40.368C595.864,324.886,613.636,303.273,613.636,277.555z M558.715,315.701h-23.92
		c-4.453,0-8.066,3.787-8.066,8.24s3.613,8.156,8.066,8.156c21.387,0,38.783,16.8,38.783,38.189
		c0,21.387-17.396,38.187-38.783,38.187h-35.277c-4.453,0-8.067,4.251-8.067,8.708s3.614,8.386,8.067,8.386
		c21.386,0,38.783,18.47,38.783,39.856c0,21.386-17.397,39.855-38.783,39.855h-50.412c-4.453,0-8.066,2.703-8.066,7.155
		c0,4.453,3.613,7.612,8.066,7.612c21.354,0,38.73,17.171,38.73,38.557c0,21.395-17.376,38.683-38.73,38.683
		c-19.059,0-38.407,0.439-57.123,0.923c-18.627,0.48-37.892,0.952-56.773,0.952c-31.179,0-56.595-1.392-79.99-4.353
		c-18.006-2.271-35.064-10.213-51.561-17.885c-19.934-9.272-40.554-18.869-63.356-18.869c-8.317,0-16.63,1.303-24.713,3.872
		c-5.191,1.658-9.568,3.812-13.799,5.897c-6.53,3.215-12.177,5.994-19.305,5.994l-0.952-0.017
		c-12.403-0.415-23.879-6.816-30.853-12.108c-19.353-14.727-32.91-38.59-32.91-59.375V325.475c0-22.189,11.911-43.099,30.926-55.93
		c13.145-8.857,28.735-14.142,41.247-14.142c0.799,0,1.739,0.02,2.545,0.064c5.481,0.287,8.422,2.033,13.178,4.933
		c2.005,1.222,4.312,2.61,6.978,3.965c5.018,2.554,10.645,3.848,16.691,3.848c31.39,0,69.551-35.717,90.046-54.905l3.582-3.344
		c20.97-19.442,37.064-43.171,52.626-66.119c4.159-6.135,8.313-12.254,12.544-18.276c7.962-11.331,12.972-23.726,17.812-35.713
		c3.384-8.382,6.583-16.3,10.725-23.891c2.13-3.937,4.094-8.015,5.986-11.959c5.881-12.222,11.435-23.77,21.397-30.623
		c6.809-4.675,15.082-7.248,23.29-7.248c11.205,0,21.043,4.534,27.699,12.762c20.761,25.653,5.735,65.893-9.681,98.093
		c-3.864,8.095-8.991,16.082-14.425,24.536c-10.507,16.364-21.378,33.285-24.004,52.909c-1.738,13.048,0.049,22.451,5.45,28.751
		c2.863,3.34,8.229,7.365,17.518,7.559c11.932,0.25,24.379-0.149,36.387-0.823c10.072-0.564,20.486-0.855,30.417-0.855h122.009
		c21.386,0,38.782,16.933,38.782,38.319C597.497,298.772,580.101,315.701,558.715,315.701z" fill="#00a2ff"/>
</g>
<g>
</g>
<g>
</g>
<g>
</g>
<g>
</g>
<g>
</g>
<g>
</g>
<g>
</g>
<g>
</g>
<g>
</g>
<g>
</g>
<g>
</g>
<g>
</g>
<g>
</g>
<g>
</g>
<g>
</g>
</svg>
